<?xml version="1.0" encoding="UTF-8"?>
<svg width="1000" height="450" xmlns="http://www.w3.org/2000/svg" role="img" aria-label="Altimetría del circuito">
  <desc>Perfil altimétrico generado desde circuitoEsquema.xml</desc>
  <line x1="50" y1="400.0" x2="950" y2="400.0" stroke="#eee"/>
  <text x="38" y="404.0" font-size="11" text-anchor="end" fill="#333">240</text>
  <line x1="50" y1="323.9130434782609" x2="950" y2="323.9130434782609" stroke="#ccc"/>
  <text x="38" y="327.9130434782609" font-size="11" text-anchor="end" fill="#333">250</text>
  <line x1="50" y1="247.82608695652175" x2="950" y2="247.82608695652175" stroke="#eee"/>
  <text x="38" y="251.82608695652175" font-size="11" text-anchor="end" fill="#333">260</text>
  <line x1="50" y1="171.7391304347826" x2="950" y2="171.7391304347826" stroke="#eee"/>
  <text x="38" y="175.7391304347826" font-size="11" text-anchor="end" fill="#333">270</text>
  <line x1="50" y1="95.6521739130435" x2="950" y2="95.6521739130435" stroke="#eee"/>
  <text x="38" y="99.6521739130435" font-size="11" text-anchor="end" fill="#333">280</text>
  <line x1="50" y1="400" x2="950" y2="400" stroke="#333"/>
  <line x1="50" y1="400" x2="50" y2="50" stroke="#333"/>
  <text x="50" y="35" font-size="13" fill="#333">Altitud (m)</text>
  <text x="860" y="430" font-size="13" fill="#333">Distancia (m)</text>
  <polyline points="50.0,400 50.0,278.2608695652174 77.190332326284,270.6521739130435 102.02416918429003,263.04347826086956 128.12688821752266,194.56521739130434 167.28096676737158,194.56521739130434 175.07552870090632,179.34782608695653 180.8761329305136,141.30434782608694 186.85800604229607,171.7391304347826 195.74018126888217,148.91304347826087 219.3051359516616,88.04347826086956 227.28096676737158,88.04347826086956 242.14501510574016,72.82608695652175 247.40181268882174,65.21739130434781 252.29607250755285,57.608695652173935 259.0030211480363,50.0 317.5528700906344,80.43478260869563 322.62839879154075,80.43478260869563 328.9728096676737,80.43478260869563 336.404833836858,88.04347826086956 344.380664652568,103.26086956521738 399.6676737160121,202.17391304347825 408.18731117824774,217.3913043478261 421.7824773413897,270.6521739130435 432.2960725075528,308.69565217391306 441.5407854984894,331.52173913043475 474.3504531722054,369.5652173913044 483.2326283987915,369.5652173913044 491.02719033232626,361.95652173913044 499.18429003021146,354.3478260869565 528.0060422960726,263.04347826086956 534.8942598187311,232.6086956521739 545.4078549848942,202.17391304347825 595.0755287009063,156.52173913043478 601.238670694864,164.1304347826087 608.1268882175226,171.7391304347826 617.0090634441087,171.7391304347826 623.8972809667673,179.34782608695653 632.2356495468277,194.56521739130434 687.3413897280966,156.52173913043478 696.7673716012084,171.7391304347826 703.2930513595165,194.56521739130434 711.0876132930513,202.17391304347825 716.1631419939577,209.7826086956522 721.963746223565,225.0 747.7039274924471,232.6086956521739 754.5921450151056,240.2173913043478 766.3746223564955,255.43478260869566 772.7190332326284,255.43478260869566 844.8640483383685,247.82608695652175 853.202416918429,247.82608695652175 859.3655589123866,255.43478260869566 865.7099697885196,278.2608695652174 872.2356495468277,293.47826086956525 878.9425981873111,308.69565217391306 888.9123867069486,331.52173913043475 950.0,301.0869565217391 950.0,400" fill="rgba(30,144,255,0.15)" stroke="#1e90ff" stroke-width="2"/>
  <text x="50.0" y="435" font-size="12" text-anchor="middle" fill="#333" transform="rotate(-35 50.0,435)">Origen</text>
  <text x="77.190332326284" y="435" font-size="12" text-anchor="middle" fill="#333" transform="rotate(-35 77.190332326284,435)">Sector 1</text>
  <text x="322.62839879154075" y="435" font-size="12" text-anchor="middle" fill="#333" transform="rotate(-35 322.62839879154075,435)">Sector 2</text>
  <text x="601.238670694864" y="435" font-size="12" text-anchor="middle" fill="#333" transform="rotate(-35 601.238670694864,435)">Sector 3</text>
  <text x="950.0" y="435" font-size="12" text-anchor="middle" fill="#333" transform="rotate(-35 950.0,435)">Final</text>
</svg>
